<?xml version="1.0" encoding="utf-8"?>
<!-- Generator: Adobe Illustrator 26.5.0, SVG Export Plug-In . SVG Version: 6.00 Build 0)  -->
<svg version="1.1" id="Ebene_1" xmlns="http://www.w3.org/2000/svg" xmlns:xlink="http://www.w3.org/1999/xlink" x="0px" y="0px"
	 viewBox="0 0 1920 511" style="enable-background:new 0 0 1920 511;" xml:space="preserve">
<style type="text/css">
	.st0{clip-path:url(#SVGID_00000096030454960852181720000004723022825856970916_);fill:#00A651;}
	.st1{clip-path:url(#SVGID_00000096030454960852181720000004723022825856970916_);fill:#55A08E;}
	.st2{clip-path:url(#SVGID_00000096030454960852181720000004723022825856970916_);fill:#79C14E;}
	.st3{fill:#3254A5;}
	.st4{clip-path:url(#SVGID_00000164509362181904967580000005052397450924511407_);fill:#AFD24A;}
</style>
<g>
	<g>
		<defs>
			<rect id="SVGID_1_" x="0" y="-0.6" width="1917.9" height="512.4"/>
		</defs>
		<clipPath id="SVGID_00000149355674875444626370000009115741988293321646_">
			<use xlink:href="#SVGID_1_"  style="overflow:visible;"/>
		</clipPath>
		<path style="clip-path:url(#SVGID_00000149355674875444626370000009115741988293321646_);fill:#00A651;" d="M1918.5,11.4
			c0,0-94.3,36.1-138.9,70.8c-14.4,11.2-36,43.7-81.4,44.4c-45.4,0.6-55.2-2.1-70.1-8.3c-14.9-6.1-52.1-44.3-114.8-43
			c-62,1.3-97.1,29.8-143.4,36.4c-46.2,6.6-105.4-0.9-198.7-14.9c-93.3-14-86.5,18.3-141,18.1c-54.5-0.2-97.4-12.1-128-29.6
			c-30.6-17.6-57.8-56.1-108-56.2c-51.9,0.7-66.8,36.1-96.2,36.7c-29.4,0.6-63.9-48.1-100.7-48.1c-31.7,0-42.5,10.7-55.7,20.3
			c-24.7,19.5-56.1,68.1-95,67.7c-38.8-0.4-98.1-71.5-152.1-71.5c-54.9,0-109.1,67-139.6,74c-30.6,7-33,8.9-52,3.8
			c-19-5.1-87.6-36.6-102.5-58.8v254.9h1917.9V11.4z"/>
		<path style="clip-path:url(#SVGID_00000149355674875444626370000009115741988293321646_);fill:#55A08E;" d="M1918.5,55.1
			c0,0-53.4-5.7-77.2,14.1c-23.9,19.8-62.9,44.2-86.8,54.1c-23.9,9.9-62.9,22.1-86.8,27.1c-23.9,5-62.9-5.4-86.8-23
			c-23.9-17.6-62.9-21.7-86.8-9c-23.9,12.6-62.9,23-86.8,23h-86.8h-86.8c-23.9,0-55.8-2-79.7-4.5c-23.9-2.5-40.2-30.2-57.5-49.8
			c-17.3-19.6-55-84.1-95.8-82.7C952.9,6.2,910.5,67,886.6,91.8c-23.9,24.8-56.2,24.8-80.1,0c-23.9-24.8-58.5-35-82.3-28
			c-23.9,6.9-71.5,30.5-95.3,6.1c-23.9-24.3-38.3-38-80.1-37c-46.6,1.1-106.4,86.4-106.4,86.4c-24.1,24.4-52.6,16.9-76.5-0.4
			c-23.9-17.4-65.3-34.8-89.1-34.8c-23.9,0-67.3,16.2-91.2,33.6c-26.3,16-56.4,10.9-80.1,5.3C50.4,109.8,41,96.8,17.1,86.1
			C-6.8,75.4-1,77.9-1,77.9l1.6,228.5l1917.9,0.2V55.1z"/>
		<path style="clip-path:url(#SVGID_00000149355674875444626370000009115741988293321646_);fill:#79C14E;" d="M0.3,287.9l1918.3,2.7
			v-228h-73.2c-27.4,0-72.1,1-99.5,2.3c-27.4,1.3-72.1,18-99.5,37.1c-27.4,19.1-72.1,34.8-99.5,34.8s-72.1-8.1-99.5-18
			c-27.4-9.9-72.1-20.8-99.5-24.4c-27.4-3.5-72.1-6.4-99.5-6.4c-27.4,0-72.4,1.1-99.5,6.4c-27.8,5.4-78.2,42.3-111.4,59.2
			c-33.2,16.9-60.2,32.7-87.6,24.8c-27.4-8-69.8-9.7-94.4-31.2l-10.1-8.9c-24.6-21.5-67-53.7-94.4-71.5c-27.4-17.9-72.1-17.9-99.5,0
			c-27.4,17.9-72.1,48.7-99.5,68.4c-27.4,19.8-71.1,22.3-98.4,25.5c-27.4,3.2-73.2,6.1-100.5-13.3c-27.4-19.5-72.1-35.4-99.5-35.4
			s-68.6,16.8-91.7,38.3l-15.6,12c-23.1,21.5-64.3,3.6-91.7-2.5c-13.1-2.9-54.3-5.7-54.3-6L0.3,287.9z"/>
	</g>
	<rect x="0.6" y="239.2" class="st3" width="1029" height="58.2"/>
	<g>
		<defs>
			<rect id="SVGID_00000176040176076093922110000003586313690626878598_" x="0" y="-0.6" width="1917.9" height="512.4"/>
		</defs>
		<clipPath id="SVGID_00000173852401058076779720000012543374873591662247_">
			<use xlink:href="#SVGID_00000176040176076093922110000003586313690626878598_"  style="overflow:visible;"/>
		</clipPath>
		<path style="clip-path:url(#SVGID_00000173852401058076779720000012543374873591662247_);fill:#AFD24A;" d="M1918.5,175.4
			c0,0-38.5-17.4-62.4-33c-23.9-15.6-55.8-29.3-79.7-37.5c-23.9-8.2-41.9-10-77.4-3.6c-35.5,6.4-76,38.1-99.9,54
			c-23.9,16-46.8,17.8-86.8-1.3c-40-19.1-118.5-17.8-172.6-12.1c-23.9,4.1-75.7,17.6-91.4,41.4c-26.5,40.2-41.7,41.2-84.5,9.9
			c-42.8-31.3-52.5-42.4-92.5-40.5c-33.9,1.6-69.9,43-97.4,59.3c-27.6,16.3-36.5,25.5-72.9,5.4c-36.3-20.1-63-19.6-86.8-19.6
			c-23.9,0-63,3-86.8,6.8c-23.9,3.7-63,12.5-86.8,19.6c-23.9,7.1-63,22.5-86.8,28.8c-23.9,6.3-63,11.5-86.8,11.5
			c-23.9,0-63-2.4-86.8-5.4c-23.9-3-63-18.4-86.8-28.8c-23.9-10.4-63,3.2-86.8,16.6c-23.9,13.4-63,13.4-86.8,0
			c-23.9-13.4-63-24.5-86.8-11.2c-25.7,5.1-32.1,3.2-32.1,3.2v275.1h1917.9V175.4z"/>
	</g>
</g>
</svg>
