<?xml version="1.0" encoding="utf-8"?>
<!-- Generator: Adobe Illustrator 26.5.0, SVG Export Plug-In . SVG Version: 6.00 Build 0)  -->
<svg version="1.1" id="Ebene_1" xmlns="http://www.w3.org/2000/svg" xmlns:xlink="http://www.w3.org/1999/xlink" x="0px" y="0px"
	 viewBox="10 0 270.1 45" xml:space="preserve">
<style type="text/css">
	.st0{fill:#E2001A;}
	.st1{fill:#FFFFFF;stroke:#FFFFFF;stroke-width:3;stroke-miterlimit:10;}
</style>
<path d="M13.4,37.8h3.1V17.6c0,0,0.7,1.2,1.9,2.8L26.6,32l8.1-11.4c1.2-1.7,1.9-2.9,1.9-2.9v20.2h3.2V12.3h-2.8L30.7,21
	c-1.3,1.9-4.1,5.9-4.1,5.9s-2.8-4-4.1-5.9l-6.2-8.7h-2.8V37.8z"/>
<polygon points="78.8,37.8 82,37.8 82,15.1 91.4,15.1 91.4,12.3 69.3,12.3 69.3,15.1 78.8,15.1 "/>
<path d="M96.1,37.8h3.1V17.6c0,0,0.7,1.2,1.9,2.8l8.1,11.5l8.1-11.4c1.2-1.7,1.9-2.9,1.9-2.9v20.2h3.2V12.3h-2.8l-6.2,8.7
	c-1.3,1.9-4.1,5.9-4.1,5.9s-2.8-4-4.1-5.9l-6.2-8.7h-2.8V37.8z"/>
<path d="M146.8,30.3h-13.4l4.7-9.9c0.9-1.9,1.9-4.3,2-4.6c0.2,0.3,1.1,2.8,2,4.6L146.8,30.3z M153.4,37.8l-12-25.6h-2.8l-12,25.6
	h3.2l2.4-5h15.6l2.4,5H153.4z"/>
<path d="M169.4,38.2c3.8,0,7.1-1.5,9.4-3.9l-2-2.2c-1.9,2-4.5,3.2-7.5,3.2c-5.7,0-10-4.6-10-10.3c0-5.6,4.3-10.2,10.2-10.2
	c2.5,0,4.8,0.9,6.7,2.5l1.9-2.1c-2.3-2-5.4-3.3-8.8-3.3c-7.6,0-13.3,5.8-13.3,13.1C156.1,32.4,161.8,38.2,169.4,38.2"/>
<polygon points="183.3,37.8 186.5,37.8 186.5,25.6 201.2,25.6 201.2,37.8 204.4,37.8 204.4,12.3 201.2,12.3 201.2,22.8 186.5,22.8 
	186.5,12.3 183.3,12.3 "/>
<polygon points="211.1,37.8 231,37.8 231,35.1 214.3,35.1 214.3,25.6 229.4,25.6 229.4,22.8 214.3,22.8 214.3,15.1 230.4,15.1 
	230.4,12.3 211.1,12.3 "/>
<path d="M236.1,37.8h3.1V17.2c0,0,1.3,2.4,2.9,4.4l12.5,16.2h3.2V12.3h-3.2V33c0,0-1.4-2.4-2.7-4.1l-12.7-16.6h-3.1V37.8z"/>
<g>
	<path class="st0" d="M71,19.9c0-0.1,0-0.1-0.1-0.2c0-0.1,0-0.1-0.1-0.2c0-0.1-0.1-0.3-0.1-0.4c0-0.1-0.1-0.1-0.1-0.2
		c0-0.1-0.1-0.2-0.1-0.3c0-0.1-0.1-0.1-0.1-0.2c-0.1-0.1-0.1-0.3-0.2-0.4c0,0-0.1-0.1-0.1-0.1c-0.1-0.1-0.1-0.2-0.2-0.4
		c0,0-0.1-0.1-0.1-0.1c-0.1-0.1-0.1-0.2-0.2-0.3c-0.1-0.1-0.1-0.1-0.2-0.2c0-0.1-0.1-0.1-0.1-0.2c-0.1-0.1-0.1-0.2-0.2-0.2
		c-0.1-0.1-0.1-0.1-0.2-0.2c-0.1-0.1-0.1-0.1-0.2-0.2c0,0-0.1-0.1-0.1-0.1c-0.1-0.1-0.2-0.1-0.3-0.2c0,0-0.1-0.1-0.1-0.1
		c-0.1-0.1-0.2-0.2-0.3-0.2c0,0,0,0-0.1,0c-0.1-0.1-0.3-0.2-0.4-0.2c0,0,0,0,0,0c-1-0.6-2.2-0.9-3.4-0.9c-2.2,0-4.4,1.1-5.8,3.3
		c-1.1-1.7-2.6-2.7-4.2-3.1c0,0-0.1,0-0.1,0c-0.1,0-0.2,0-0.3-0.1c-0.4-0.1-0.8-0.1-1.3-0.1c-2.9,0-5.8,1.9-6.9,5.5
		c-1.4,4.7,1.7,9,5.4,11.6c3.5,2.5,5.2,3.6,7.3,8c0.5-1,0.9-1.8,1.4-2.5v0c0.7-1,1.3-1.8,2.1-2.5c1-1,2.2-1.8,3.8-2.9
		c2.9-2.1,5.4-5.2,5.7-8.6C71.3,21.9,71.3,20.9,71,19.9z M58.2,19.7c1,0,1.9,0.8,1.9,1.9c0,1-0.8,1.8-1.9,1.8c-1,0-1.8-0.8-1.8-1.8
		C56.4,20.6,57.2,19.7,58.2,19.7z M58.3,37.1c-0.5-0.8-0.9-1.4-1.4-2v-9.8h2.8V35C59.2,35.6,58.7,36.3,58.3,37.1z"/>
	<path class="st0" d="M51.9,13.5c0.4,0,0.7-0.4,0.7-0.8c0-0.4-0.4-0.7-0.8-0.7c-6.6,0.7-8.4,6-8.8,7.6c-0.2,0.8-0.5,1.5,0.3,1.6
		c0.9,0.2,1.1-0.6,1.1-0.6C44.4,20.5,45.2,14.2,51.9,13.5z"/>
	<path class="st0" d="M43.3,16.2c0.5-0.9,1.6-2.5,3.9-3.7c0.4-0.2,0.5-0.7,0.3-1c-0.2-0.4-0.7-0.5-1-0.3c-2.7,1.4-4,3.3-4.6,4.3
		c-0.2,0.4-0.1,0.8,0.3,1c0.1,0.1,0.2,0.1,0.4,0.1C42.9,16.6,43.2,16.4,43.3,16.2z"/>
	<path class="st1" d="M74.7,15.2c-0.6-1-1.9-3-4.6-4.3c-0.4-0.2-0.8,0-1,0.3c-0.2,0.4,0,0.8,0.3,1c2.3,1.2,3.5,2.8,3.9,3.7
		c0.1,0.3,0.4,0.4,0.7,0.4c0.1,0,0.2,0,0.4-0.1C74.7,16.1,74.9,15.6,74.7,15.2z"/>
	<path class="st0" d="M64.9,11.9c-0.4,0-0.8,0.3-0.8,0.7c0,0.4,0.3,0.8,0.7,0.8c6.8,0.7,7.5,7,7.6,7.1c0,0,0.1,0.9,1.1,0.6
		c0.8-0.2,0.5-0.9,0.3-1.6C73.3,18,71.5,12.7,64.9,11.9z"/>
	<path class="st0" d="M74.7,15.2c-0.6-1-1.9-3-4.6-4.3c-0.4-0.2-0.8,0-1,0.3c-0.2,0.4,0,0.8,0.3,1c2.3,1.2,3.5,2.8,3.9,3.7
		c0.1,0.3,0.4,0.4,0.7,0.4c0.1,0,0.2,0,0.4-0.1C74.7,16.1,74.9,15.6,74.7,15.2z"/>
</g>
<path d="M241.2,53.1c-1.4,0-2.5-1.1-2.5-2.6c0-1.5,1.1-2.6,2.5-2.6c1.4,0,2.6,1.1,2.6,2.5C243.7,52,242.6,53.1,241.2,53.1
	 M241.1,56.8c1.6,0,3.8-0.9,3.8-3.9v-5.8h-1.1v1.4c-0.4-0.9-1.5-1.5-2.8-1.5c-2,0-3.5,1.6-3.5,3.6c0,2,1.4,3.6,3.5,3.6
	c1.4,0,2.5-0.7,2.8-1.5v0.2c0,2.2-1.4,3-2.7,3c-0.9,0-1.7-0.3-2.3-0.9l-0.5,0.8C238.9,56.4,239.9,56.8,241.1,56.8 M232.2,53.5
	c-1.5,0-2.7-1.2-2.7-2.7c0-1.6,1.2-2.8,2.7-2.8c1.5,0,2.7,1.2,2.7,2.8C234.9,52.4,233.8,53.5,232.2,53.5 M232.2,54.7
	c2.2,0,3.9-1.7,3.9-3.9c0-2.2-1.7-3.9-3.9-3.9c-2.2,0-3.9,1.7-3.9,3.9C228.3,53,230,54.7,232.2,54.7 M225.5,54.5h1.2V44.5h-1.2V54.5
	z M219.8,53.5c-1.5,0-2.6-1.2-2.6-2.7c0-1.6,1.1-2.8,2.6-2.8c1.4,0,2.5,1.2,2.5,2.8C222.4,52.4,221.2,53.5,219.8,53.5 M219.6,54.7
	c1.2,0,2.2-0.5,2.8-1.5v1.3h1.2v-7.4h-1.2v1.3c-0.6-1-1.6-1.5-2.8-1.5c-2.1,0-3.5,1.7-3.5,3.9C216,53,217.5,54.7,219.6,54.7
	 M213.8,45.7c0.4,0,0.8-0.3,0.8-0.8c0-0.4-0.4-0.8-0.8-0.8c-0.4,0-0.8,0.4-0.8,0.8C213.1,45.4,213.4,45.7,213.8,45.7z M213.2,54.5
	h1.2v-7.4h-1.2V54.5z M207.6,53.5c-1.5,0-2.6-1.2-2.6-2.7c0-1.6,1.1-2.8,2.6-2.8c1.4,0,2.5,1.2,2.5,2.8
	C210.1,52.4,209,53.5,207.6,53.5 M207.3,54.7c1.2,0,2.3-0.5,2.8-1.5v1.3h1.1V44.5h-1.2v3.9c-0.6-1-1.6-1.5-2.8-1.5
	c-2.1,0-3.5,1.7-3.5,3.9C203.8,53,205.3,54.7,207.3,54.7 M198.9,54.5h1.2V51c0-1.8,1.1-2.8,2.9-2.8v-1.3c-1.5,0-2.4,0.7-2.9,1.7
	v-1.6h-1.2V54.5z M191.1,50.3c0.2-1.4,1.2-2.4,2.5-2.4c1.3,0,2.4,1,2.5,2.4H191.1z M193.8,54.7c1,0,2-0.4,2.8-1l-0.5-0.9
	c-0.6,0.5-1.5,0.8-2.3,0.8c-1.4,0-2.5-0.9-2.7-2.4h6.1c0,0,0-0.2,0-0.5c0-2.1-1.6-3.8-3.6-3.8c-2.1,0-3.7,1.7-3.7,3.9
	C189.9,53.2,191.7,54.7,193.8,54.7 M184.6,53.1c-1.4,0-2.5-1.1-2.5-2.6c0-1.5,1.1-2.6,2.5-2.6c1.4,0,2.6,1.1,2.6,2.5
	C187.1,52,186,53.1,184.6,53.1 M184.5,56.8c1.6,0,3.8-0.9,3.8-3.9v-5.8h-1.1v1.4c-0.4-0.9-1.5-1.5-2.8-1.5c-2,0-3.5,1.6-3.5,3.6
	c0,2,1.4,3.6,3.5,3.6c1.4,0,2.5-0.7,2.8-1.5v0.2c0,2.2-1.4,3-2.7,3c-0.9,0-1.7-0.3-2.3-0.9l-0.5,0.8
	C182.3,56.4,183.3,56.8,184.5,56.8 M175.9,54.5h1.2V51c0-1.8,1.1-2.8,2.9-2.8v-1.3c-1.5,0-2.4,0.7-2.9,1.7v-1.6h-1.2V54.5z
	 M169.6,45.8c0.4,0,0.7-0.3,0.7-0.7c0-0.4-0.3-0.7-0.7-0.7c-0.4,0-0.7,0.3-0.7,0.7C168.9,45.5,169.2,45.8,169.6,45.8 M172,45.8
	c0.4,0,0.7-0.3,0.7-0.7c0-0.4-0.3-0.7-0.7-0.7c-0.4,0-0.7,0.3-0.7,0.7C171.3,45.5,171.6,45.8,172,45.8 M170.3,54.7
	c1,0,2-0.5,2.5-1.5v1.3h1.1v-7.4h-1.2v4.2c0,1.1-0.8,2.2-2.1,2.2c-1.2,0-1.9-0.6-1.9-2v-4.5h-1.2v4.6
	C167.6,53.7,168.5,54.7,170.3,54.7 M158.9,48.5v-2.8h3.2c1,0,1.6,0.5,1.6,1.4c0,0.8-0.5,1.4-1.4,1.4H158.9z M158.9,53.5v-3.9h3.6
	c1.3,0,2.2,0.8,2.2,2c0,1.3-1,2-2.5,2H158.9z M157.7,54.5h4.6c2.3,0,3.7-1.1,3.7-3c0-1.4-1-2.4-2.1-2.7c0.6-0.3,1.1-1,1.1-1.8
	c0-1.6-1.2-2.4-2.8-2.4h-4.5V54.5z M141.1,54.5h1.2v-4.3c0-1.1,0.8-2.2,2.1-2.2c1.3,0,1.8,0.8,1.8,2.1v4.4h1.2v-4.3
	c0-1.1,0.8-2.1,2-2.1c1.4,0,1.8,0.8,1.8,2.1v4.4h1.2V50c0-2-0.9-3.1-2.7-3.1c-0.9,0-2,0.5-2.6,1.6c-0.4-1.1-1.2-1.6-2.4-1.6
	c-1,0-2,0.6-2.4,1.4v-1.3h-1.2V54.5z M138.6,45.7c0.4,0,0.8-0.3,0.8-0.8c0-0.4-0.4-0.8-0.8-0.8c-0.4,0-0.8,0.4-0.8,0.8
	C137.8,45.4,138.2,45.7,138.6,45.7z M138,54.5h1.2v-7.4H138V54.5z M131.6,54.5h1.2V44.5h-1.2V54.5z M123.8,50.3
	c0.2-1.4,1.2-2.4,2.5-2.4c1.3,0,2.4,1,2.5,2.4H123.8z M126.5,54.7c1,0,2-0.4,2.8-1l-0.5-0.9c-0.6,0.5-1.5,0.8-2.3,0.8
	c-1.4,0-2.5-0.9-2.7-2.4h6.1c0,0,0-0.2,0-0.5c0-2.1-1.6-3.8-3.6-3.8c-2.1,0-3.7,1.7-3.7,3.9C122.6,53.2,124.4,54.7,126.5,54.7
	 M118.2,54.7c1.5,0,3.1-0.7,3.1-2.3c0-1.5-1.4-2-2.7-2.3c-0.9-0.2-1.7-0.4-1.7-1.1c0-0.6,0.7-1,1.5-1c0.8,0,1.4,0.2,2.1,0.6l0.5-0.9
	c-0.8-0.5-1.5-0.8-2.5-0.8c-1.3,0-2.7,0.8-2.7,2.1c0,1.4,1.3,1.8,2.6,2.2c0.9,0.2,1.8,0.4,1.8,1.2c0,0.7-0.8,1.1-1.9,1.1
	c-1.1,0-1.9-0.4-2.4-1l-0.5,0.9C115.8,54,116.7,54.7,118.2,54.7 M110.2,54.7c1,0,2-0.5,2.5-1.5v1.3h1.1v-7.4h-1.2v4.2
	c0,1.1-0.8,2.2-2.1,2.2c-1.2,0-1.9-0.6-1.9-2v-4.5h-1.2v4.6C107.4,53.7,108.3,54.7,110.2,54.7 M98.1,54.5h1.2v-2l2.3-2.5l3.6,4.5
	h1.5l-4.3-5.3l4-4.6h-1.5l-4.7,5.3c-0.3,0.4-0.8,1-0.8,1.1v-6.3h-1.2V54.5z M89.9,54.7c1.5,0,3.1-0.7,3.1-2.3c0-1.5-1.4-2-2.7-2.3
	c-0.9-0.2-1.7-0.4-1.7-1.1c0-0.6,0.7-1,1.5-1c0.8,0,1.4,0.2,2.1,0.6l0.5-0.9c-0.8-0.5-1.5-0.8-2.5-0.8c-1.3,0-2.7,0.8-2.7,2.1
	c0,1.4,1.3,1.8,2.6,2.2c0.9,0.2,1.8,0.4,1.8,1.2c0,0.7-0.8,1.1-1.9,1.1c-1.1,0-1.9-0.4-2.4-1L87,53.5C87.4,54,88.4,54.7,89.9,54.7
	 M84.8,45.7c0.4,0,0.8-0.3,0.8-0.8c0-0.4-0.4-0.8-0.8-0.8s-0.8,0.4-0.8,0.8C84.1,45.4,84.4,45.7,84.8,45.7z M84.3,54.5h1.2v-7.4
	h-1.2V54.5z M76.5,50.3c0.2-1.4,1.2-2.4,2.5-2.4c1.3,0,2.4,1,2.5,2.4H76.5z M79.2,54.7c1,0,2-0.4,2.8-1l-0.5-0.9
	c-0.6,0.5-1.5,0.8-2.3,0.8c-1.4,0-2.5-0.9-2.7-2.4h6.1c0,0,0-0.2,0-0.5c0-2.1-1.6-3.8-3.6-3.8c-2.1,0-3.7,1.7-3.7,3.9
	C75.3,53.2,77.1,54.7,79.2,54.7 M70.4,54.5h1.2V51c0-1.8,1.1-2.8,2.9-2.8v-1.3c-1.5,0-2.4,0.7-2.9,1.7v-1.6h-1.2V54.5z M62.5,54.5
	h1.2v-1.7l1.4-1.6l2.8,3.3h1.4l-3.5-4.1l3-3.3h-1.5l-3.6,4.2v-6.8h-1.2V54.5z M56.8,53.5c-1.5,0-2.6-1.2-2.6-2.7
	c0-1.6,1.1-2.8,2.6-2.8c1.4,0,2.5,1.2,2.5,2.8C59.4,52.4,58.3,53.5,56.8,53.5 M56.6,54.7c1.2,0,2.3-0.5,2.8-1.5v1.3h1.1V44.5h-1.2
	v3.9c-0.6-1-1.6-1.5-2.8-1.5c-2.1,0-3.5,1.7-3.5,3.9C53.1,53,54.5,54.7,56.6,54.7 M45.1,54.5h1.2v-4.2c0-1.2,0.9-2.3,2.3-2.3
	c1.3,0,1.9,0.7,1.9,2.1v4.4h1.2V50c0-2-0.8-3.1-2.7-3.1c-1.1,0-2.1,0.5-2.6,1.4v-1.3h-1.2V54.5z M39.4,53.5c-1.5,0-2.6-1.2-2.6-2.7
	c0-1.6,1.1-2.8,2.6-2.8c1.4,0,2.5,1.2,2.5,2.8C42,52.4,40.9,53.5,39.4,53.5 M39.2,54.7c1.2,0,2.2-0.5,2.8-1.5v1.3h1.2v-7.4H42v1.3
	c-0.6-1-1.6-1.5-2.8-1.5c-2.1,0-3.5,1.7-3.5,3.9C35.7,53,37.1,54.7,39.2,54.7 M27.2,54.5h7.5v-1.1h-6.3v-8.8h-1.2V54.5z"/>
</svg>
